<svg xmlns="http://www.w3.org/2000/svg" viewBox="0 0 48 48">
  <linearGradient id="metaGrad1" x1="6.228" x2="42.077" y1="4.896" y2="43.432" gradientUnits="userSpaceOnUse">
    <stop offset="0" stop-color="#0064e1"/>
    <stop offset=".657" stop-color="#0064e1"/>
    <stop offset=".934" stop-color="#0073ee"/>
    <stop offset="1" stop-color="#0082fb"/>
  </linearGradient>
  <path fill="url(#metaGrad1)" d="M24,4C12.954,4,4,12.954,4,24c0,9.943,7.262,18.187,16.762,19.737V29.044h-4.596v-5.569h4.596v-3.803	c0-5.471,2.704-8.025,7.165-8.025c2.169,0,3.327,0.161,3.871,0.234v4.862h-3.099c-1.929,0-2.603,1.829-2.603,3.893v2.839h5.641	l-0.765,5.569h-4.876v14.756C37.602,42.048,44,33.851,44,24C44,12.954,35.046,4,24,4z"/>
  <path d="M29.897,29.044l0.765-5.569h-5.641v-2.839c0-2.064,0.674-3.893,2.603-3.893h3.099v-4.862	c-0.544-0.073-1.702-0.234-3.871-0.234c-4.461,0-7.165,2.554-7.165,8.025v3.803h-4.596v5.569h4.596v14.693	C21.309,43.94,22.635,44,24,44c1.321,0,2.607-0.055,3.872-0.162V29.044H29.897z" opacity=".05"/>
  <path d="M29.897,29.044l0.765-5.569h-5.641v-2.839c0-2.064,0.674-3.893,2.603-3.893h3.099v-4.862	c-0.544-0.073-1.702-0.234-3.871-0.234c-4.461,0-7.165,2.554-7.165,8.025v3.803h-4.596v5.569h4.596v14.693	C21.309,43.94,22.635,44,24,44c1.321,0,2.607-0.055,3.872-0.162V29.044H29.897z" fill="#fff" opacity=".1"/>
</svg>
